<svg width="100%" height="100%" id="svg" viewBox="0 0 1440 590" xmlns="http://www.w3.org/2000/svg" class="transition duration-300 ease-in-out delay-150"><path d="M 0,600 L 0,150 C 111.20574162679426,178.07655502392345 222.41148325358853,206.1531100478469 302,206 C 381.58851674641147,205.8468899521531 429.55980861244007,177.4641148325359 536,181 C 642.4401913875599,184.5358851674641 807.3492822966507,219.99043062200957 913,197 C 1018.6507177033493,174.00956937799043 1065.043062200957,92.57416267942584 1143,75 C 1220.956937799043,57.42583732057416 1330.4784688995214,103.71291866028707 1440,150 L 1440,600 L 0,600 Z" stroke="none" stroke-width="0" fill="#00d084" fill-opacity="0.53" class="transition-all duration-300 ease-in-out delay-150 path-0"></path><path d="M 0,600 L 0,350 C 70.30622009569379,318.81339712918657 140.61244019138758,287.6267942583732 247,292 C 353.3875598086124,296.3732057416268 495.8564593301436,336.3062200956938 590,367 C 684.1435406698564,397.6937799043062 729.9617224880383,419.14832535885165 811,421 C 892.0382775119617,422.85167464114835 1008.2966507177032,405.10047846889955 1119,390 C 1229.7033492822968,374.89952153110045 1334.8516746411483,362.4497607655502 1440,350 L 1440,600 L 0,600 Z" stroke="none" stroke-width="0" fill="#00d084" fill-opacity="1" class="transition-all duration-300 ease-in-out delay-150 path-1"></path></svg>